<svg xmlns="http://www.w3.org/2000/svg" xmlns:xlink="http://www.w3.org/1999/xlink" width="230.867" height="309.976" viewBox="0 0 230.867 309.976"><defs><style>.a,.f{fill:none;}.b{fill:#bf0012;}.c{fill:#161615;}.d{fill:#fff;}.e{clip-path:url(#a);}.f{stroke:#fff;stroke-width:7px;}</style><clipPath id="a"><rect class="a" width="230.867" height="309.976"/></clipPath></defs><g transform="translate(-38.619 -68.951)"><path class="b" d="M63.144,195.976H77.732v3.7H67.557V204.8h9.531v3.7H67.557v8.372H63.144Zm29.631,12.537v8.364H88.358v-20.9h9.184c4.557,0,7.01,2.51,7.01,5.739a5.006,5.006,0,0,1-3.036,4.945c1.034.381,2.6,1.458,2.6,5.2v1.032a16.629,16.629,0,0,0,.3,3.983h-4.282a14.665,14.665,0,0,1-.438-4.692v-.307c0-2.284-.576-3.366-3.945-3.366Zm0-3.6h3.788c2.476,0,3.428-.941,3.428-2.69,0-1.7-1.11-2.652-3.32-2.652h-3.9Zm27.589-8.938v20.9h-4.519v-20.9Zm12.266,0h8.288c6.087,0,10.067,4.01,10.067,10.188,0,6.1-3.862,10.713-10.256,10.713h-8.1Zm4.521,17.251h3.388c4.006,0,5.779-2.981,5.779-7.052,0-3.415-1.659-6.548-5.752-6.548H137.15Zm28.612-1.178-1.631,4.828h-4.443l7.1-20.9h5.677l7.406,20.9h-4.752l-1.718-4.828Zm.949-3.7h5.714c-1.485-4.411-2.43-7.23-2.936-9.108h-.03c-.515,2.061-1.559,5.339-2.748,9.108Zm25.212,8.531v-7.385a1.182,1.182,0,0,0-.174-.672l-7.2-12.844h5.112c1.616,3.154,3.712,7.347,4.756,9.618.909-2.19,3.2-6.589,4.777-9.618h4.728l-7.3,12.777a.993.993,0,0,0-.171.669v7.455Z" transform="translate(21.926 113.567)"/><path class="c" d="M68.088,225.7c0,5.817-3.493,10.825-10.281,10.825-6.559,0-9.993-4.765-9.993-10.753,0-6.084,3.794-10.754,10.285-10.754C64.215,215.016,68.088,219.3,68.088,225.7Zm-15.605-.019c0,4.08,1.79,7.167,5.495,7.167,4.021,0,5.444-3.366,5.444-7.091,0-3.955-1.619-7.061-5.516-7.061C54.131,218.694,52.483,221.609,52.483,225.68Zm28.369-10.361v12.453c0,4.012,2.063,5.2,4.317,5.2,2.587,0,4.21-1.405,4.21-5.2V215.319H93.9v12.23c0,7.146-4.184,8.968-8.794,8.968-4.716,0-8.783-1.9-8.783-8.883V215.319Zm26.932,3.7h-6.351v-3.7h17.2v3.7h-6.328v17.2h-4.523Zm22.607,8.832v8.364h-4.417v-20.9h9.184c4.557,0,7.01,2.51,7.01,5.739A5.006,5.006,0,0,1,139.132,226c1.034.381,2.6,1.458,2.6,5.2v1.032a16.628,16.628,0,0,0,.3,3.983h-4.282a14.664,14.664,0,0,1-.438-4.692v-.307c0-2.284-.576-3.366-3.945-3.366Zm0-3.6h3.788c2.476,0,3.428-.941,3.428-2.69,0-1.7-1.11-2.652-3.32-2.652h-3.9Zm34.724,2.949H155.12v5.311h11.025l-.536,3.7H150.733v-20.9h14.821v3.7H155.12V223.5h9.995Zm13.476,4.186-1.631,4.828h-4.443l7.1-20.9h5.677l7.4,20.9h-4.75l-1.718-4.828Zm.951-3.7h5.712c-1.483-4.411-2.43-7.23-2.934-9.108h-.03c-.515,2.061-1.559,5.339-2.748,9.108Zm37.815,2.089c-.839,3.9-3.781,6.739-9.014,6.739-6.627,0-9.762-4.692-9.762-10.637,0-5.73,3.233-10.864,9.98-10.864,5.565,0,8.264,3.267,8.773,6.76h-4.519a4.1,4.1,0,0,0-4.4-3.216c-3.726,0-5.165,3.353-5.165,7.156,0,3.534,1.248,7.256,5.286,7.256a4.158,4.158,0,0,0,4.275-3.193Zm8.018-14.459h4.519v8.152h8.41v-8.152h4.519v20.9H238.3v-9.044h-8.41v9.044h-4.519Z" transform="translate(8.22 130.59)"/><path class="b" d="M63.144,195.976H77.732v3.7H67.557V204.8h9.531v3.7H67.557v8.372H63.144Zm29.631,12.537v8.364H88.358v-20.9h9.184c4.557,0,7.01,2.51,7.01,5.739a5.006,5.006,0,0,1-3.036,4.945c1.034.381,2.6,1.458,2.6,5.2v1.032a16.629,16.629,0,0,0,.3,3.983h-4.282a14.665,14.665,0,0,1-.438-4.692v-.307c0-2.284-.576-3.366-3.945-3.366Zm0-3.6h3.788c2.476,0,3.428-.941,3.428-2.69,0-1.7-1.11-2.652-3.32-2.652h-3.9Zm27.589-8.938v20.9h-4.519v-20.9Zm12.266,0h8.288c6.087,0,10.067,4.01,10.067,10.188,0,6.1-3.862,10.713-10.256,10.713h-8.1Zm4.521,17.251h3.388c4.006,0,5.779-2.981,5.779-7.052,0-3.415-1.659-6.548-5.752-6.548H137.15Zm28.612-1.178-1.631,4.828h-4.443l7.1-20.9h5.677l7.406,20.9h-4.752l-1.718-4.828Zm.949-3.7h5.714c-1.485-4.411-2.43-7.23-2.936-9.108h-.03c-.515,2.061-1.559,5.339-2.748,9.108Zm25.212,8.531v-7.385a1.182,1.182,0,0,0-.174-.672l-7.2-12.844h5.112c1.616,3.154,3.712,7.347,4.756,9.618.909-2.19,3.2-6.589,4.777-9.618h4.728l-7.3,12.777a.993.993,0,0,0-.171.669v7.455Z" transform="translate(21.926 113.567)"/><path class="c" d="M68.088,225.7c0,5.817-3.493,10.825-10.281,10.825-6.559,0-9.993-4.765-9.993-10.753,0-6.084,3.794-10.754,10.285-10.754C64.215,215.016,68.088,219.3,68.088,225.7Zm-15.605-.019c0,4.08,1.79,7.167,5.495,7.167,4.021,0,5.444-3.366,5.444-7.091,0-3.955-1.619-7.061-5.516-7.061C54.131,218.694,52.483,221.609,52.483,225.68Zm28.369-10.361v12.453c0,4.012,2.063,5.2,4.317,5.2,2.587,0,4.21-1.405,4.21-5.2V215.319H93.9v12.23c0,7.146-4.184,8.968-8.794,8.968-4.716,0-8.783-1.9-8.783-8.883V215.319Zm26.932,3.7h-6.351v-3.7h17.2v3.7h-6.328v17.2h-4.523Zm22.607,8.832v8.364h-4.417v-20.9h9.184c4.557,0,7.01,2.51,7.01,5.739A5.006,5.006,0,0,1,139.132,226c1.034.381,2.6,1.458,2.6,5.2v1.032a16.628,16.628,0,0,0,.3,3.983h-4.282a14.664,14.664,0,0,1-.438-4.692v-.307c0-2.284-.576-3.366-3.945-3.366Zm0-3.6h3.788c2.476,0,3.428-.941,3.428-2.69,0-1.7-1.11-2.652-3.32-2.652h-3.9Zm34.724,2.949H155.12v5.311h11.025l-.536,3.7H150.733v-20.9h14.821v3.7H155.12V223.5h9.995Zm13.476,4.186-1.631,4.828h-4.443l7.1-20.9h5.677l7.4,20.9h-4.75l-1.718-4.828Zm.951-3.7h5.712c-1.483-4.411-2.43-7.23-2.934-9.108h-.03c-.515,2.061-1.559,5.339-2.748,9.108Zm37.815,2.089c-.839,3.9-3.781,6.739-9.014,6.739-6.627,0-9.762-4.692-9.762-10.637,0-5.73,3.233-10.864,9.98-10.864,5.565,0,8.264,3.267,8.773,6.76h-4.519a4.1,4.1,0,0,0-4.4-3.216c-3.726,0-5.165,3.353-5.165,7.156,0,3.534,1.248,7.256,5.286,7.256a4.158,4.158,0,0,0,4.275-3.193Zm8.018-14.459h4.519v8.152h8.41v-8.152h4.519v20.9H238.3v-9.044h-8.41v9.044h-4.519Z" transform="translate(8.22 130.59)"/><path class="b" d="M63.144,195.976H77.732v3.7H67.557V204.8h9.531v3.7H67.557v8.372H63.144Zm29.631,12.537v8.364H88.358v-20.9h9.184c4.557,0,7.01,2.51,7.01,5.739a5.006,5.006,0,0,1-3.036,4.945c1.034.381,2.6,1.458,2.6,5.2v1.032a16.629,16.629,0,0,0,.3,3.983h-4.282a14.665,14.665,0,0,1-.438-4.692v-.307c0-2.284-.576-3.366-3.945-3.366Zm0-3.6h3.788c2.476,0,3.428-.941,3.428-2.69,0-1.7-1.11-2.652-3.32-2.652h-3.9Zm27.589-8.938v20.9h-4.519v-20.9Zm12.266,0h8.288c6.087,0,10.067,4.01,10.067,10.188,0,6.1-3.862,10.713-10.256,10.713h-8.1Zm4.521,17.251h3.388c4.006,0,5.779-2.981,5.779-7.052,0-3.415-1.659-6.548-5.752-6.548H137.15Zm28.612-1.178-1.631,4.828h-4.443l7.1-20.9h5.677l7.406,20.9h-4.752l-1.718-4.828Zm.949-3.7h5.714c-1.485-4.411-2.43-7.23-2.936-9.108h-.03c-.515,2.061-1.559,5.339-2.748,9.108Zm25.212,8.531v-7.385a1.182,1.182,0,0,0-.174-.672l-7.2-12.844h5.112c1.616,3.154,3.712,7.347,4.756,9.618.909-2.19,3.2-6.589,4.777-9.618h4.728l-7.3,12.777a.993.993,0,0,0-.171.669v7.455Z" transform="translate(21.926 113.567)"/><path class="c" d="M68.088,225.7c0,5.817-3.493,10.825-10.281,10.825-6.559,0-9.993-4.765-9.993-10.753,0-6.084,3.794-10.754,10.285-10.754C64.215,215.016,68.088,219.3,68.088,225.7Zm-15.605-.019c0,4.08,1.79,7.167,5.495,7.167,4.021,0,5.444-3.366,5.444-7.091,0-3.955-1.619-7.061-5.516-7.061C54.131,218.694,52.483,221.609,52.483,225.68Zm28.369-10.361v12.453c0,4.012,2.063,5.2,4.317,5.2,2.587,0,4.21-1.405,4.21-5.2V215.319H93.9v12.23c0,7.146-4.184,8.968-8.794,8.968-4.716,0-8.783-1.9-8.783-8.883V215.319Zm26.932,3.7h-6.351v-3.7h17.2v3.7h-6.328v17.2h-4.523Zm22.607,8.832v8.364h-4.417v-20.9h9.184c4.557,0,7.01,2.51,7.01,5.739A5.006,5.006,0,0,1,139.132,226c1.034.381,2.6,1.458,2.6,5.2v1.032a16.628,16.628,0,0,0,.3,3.983h-4.282a14.664,14.664,0,0,1-.438-4.692v-.307c0-2.284-.576-3.366-3.945-3.366Zm0-3.6h3.788c2.476,0,3.428-.941,3.428-2.69,0-1.7-1.11-2.652-3.32-2.652h-3.9Zm34.724,2.949H155.12v5.311h11.025l-.536,3.7H150.733v-20.9h14.821v3.7H155.12V223.5h9.995Zm13.476,4.186-1.631,4.828h-4.443l7.1-20.9h5.677l7.4,20.9h-4.75l-1.718-4.828Zm.951-3.7h5.712c-1.483-4.411-2.43-7.23-2.934-9.108h-.03c-.515,2.061-1.559,5.339-2.748,9.108Zm37.815,2.089c-.839,3.9-3.781,6.739-9.014,6.739-6.627,0-9.762-4.692-9.762-10.637,0-5.73,3.233-10.864,9.98-10.864,5.565,0,8.264,3.267,8.773,6.76h-4.519a4.1,4.1,0,0,0-4.4-3.216c-3.726,0-5.165,3.353-5.165,7.156,0,3.534,1.248,7.256,5.286,7.256a4.158,4.158,0,0,0,4.275-3.193Zm8.018-14.459h4.519v8.152h8.41v-8.152h4.519v20.9H238.3v-9.044h-8.41v9.044h-4.519Z" transform="translate(8.22 130.59)"/><path class="b" d="M63.144,195.976H77.732v3.7H67.557V204.8h9.531v3.7H67.557v8.372H63.144Zm29.631,12.537v8.364H88.358v-20.9h9.184c4.557,0,7.01,2.51,7.01,5.739a5.006,5.006,0,0,1-3.036,4.945c1.034.381,2.6,1.458,2.6,5.2v1.032a16.629,16.629,0,0,0,.3,3.983h-4.282a14.665,14.665,0,0,1-.438-4.692v-.307c0-2.284-.576-3.366-3.945-3.366Zm0-3.6h3.788c2.476,0,3.428-.941,3.428-2.69,0-1.7-1.11-2.652-3.32-2.652h-3.9Zm27.589-8.938v20.9h-4.519v-20.9Zm12.266,0h8.288c6.087,0,10.067,4.01,10.067,10.188,0,6.1-3.862,10.713-10.256,10.713h-8.1Zm4.521,17.251h3.388c4.006,0,5.779-2.981,5.779-7.052,0-3.415-1.659-6.548-5.752-6.548H137.15Zm28.612-1.178-1.631,4.828h-4.443l7.1-20.9h5.677l7.406,20.9h-4.752l-1.718-4.828Zm.949-3.7h5.714c-1.485-4.411-2.43-7.23-2.936-9.108h-.03c-.515,2.061-1.559,5.339-2.748,9.108Zm25.212,8.531v-7.385a1.182,1.182,0,0,0-.174-.672l-7.2-12.844h5.112c1.616,3.154,3.712,7.347,4.756,9.618.909-2.19,3.2-6.589,4.777-9.618h4.728l-7.3,12.777a.993.993,0,0,0-.171.669v7.455Z" transform="translate(21.926 113.567)"/><path class="c" d="M68.088,225.7c0,5.817-3.493,10.825-10.281,10.825-6.559,0-9.993-4.765-9.993-10.753,0-6.084,3.794-10.754,10.285-10.754C64.215,215.016,68.088,219.3,68.088,225.7Zm-15.605-.019c0,4.08,1.79,7.167,5.495,7.167,4.021,0,5.444-3.366,5.444-7.091,0-3.955-1.619-7.061-5.516-7.061C54.131,218.694,52.483,221.609,52.483,225.68Zm28.369-10.361v12.453c0,4.012,2.063,5.2,4.317,5.2,2.587,0,4.21-1.405,4.21-5.2V215.319H93.9v12.23c0,7.146-4.184,8.968-8.794,8.968-4.716,0-8.783-1.9-8.783-8.883V215.319Zm26.932,3.7h-6.351v-3.7h17.2v3.7h-6.328v17.2h-4.523Zm22.607,8.832v8.364h-4.417v-20.9h9.184c4.557,0,7.01,2.51,7.01,5.739A5.006,5.006,0,0,1,139.132,226c1.034.381,2.6,1.458,2.6,5.2v1.032a16.628,16.628,0,0,0,.3,3.983h-4.282a14.664,14.664,0,0,1-.438-4.692v-.307c0-2.284-.576-3.366-3.945-3.366Zm0-3.6h3.788c2.476,0,3.428-.941,3.428-2.69,0-1.7-1.11-2.652-3.32-2.652h-3.9Zm34.724,2.949H155.12v5.311h11.025l-.536,3.7H150.733v-20.9h14.821v3.7H155.12V223.5h9.995Zm13.476,4.186-1.631,4.828h-4.443l7.1-20.9h5.677l7.4,20.9h-4.75l-1.718-4.828Zm.951-3.7h5.712c-1.483-4.411-2.43-7.23-2.934-9.108h-.03c-.515,2.061-1.559,5.339-2.748,9.108Zm37.815,2.089c-.839,3.9-3.781,6.739-9.014,6.739-6.627,0-9.762-4.692-9.762-10.637,0-5.73,3.233-10.864,9.98-10.864,5.565,0,8.264,3.267,8.773,6.76h-4.519a4.1,4.1,0,0,0-4.4-3.216c-3.726,0-5.165,3.353-5.165,7.156,0,3.534,1.248,7.256,5.286,7.256a4.158,4.158,0,0,0,4.275-3.193Zm8.018-14.459h4.519v8.152h8.41v-8.152h4.519v20.9H238.3v-9.044h-8.41v9.044h-4.519Z" transform="translate(8.22 130.59)"/><path class="b" d="M63.144,195.976H77.732v3.7H67.557V204.8h9.531v3.7H67.557v8.372H63.144Zm29.631,12.537v8.364H88.358v-20.9h9.184c4.557,0,7.01,2.51,7.01,5.739a5.006,5.006,0,0,1-3.036,4.945c1.034.381,2.6,1.458,2.6,5.2v1.032a16.629,16.629,0,0,0,.3,3.983h-4.282a14.665,14.665,0,0,1-.438-4.692v-.307c0-2.284-.576-3.366-3.945-3.366Zm0-3.6h3.788c2.476,0,3.428-.941,3.428-2.69,0-1.7-1.11-2.652-3.32-2.652h-3.9Zm27.589-8.938v20.9h-4.519v-20.9Zm12.266,0h8.288c6.087,0,10.067,4.01,10.067,10.188,0,6.1-3.862,10.713-10.256,10.713h-8.1Zm4.521,17.251h3.388c4.006,0,5.779-2.981,5.779-7.052,0-3.415-1.659-6.548-5.752-6.548H137.15Zm28.612-1.178-1.631,4.828h-4.443l7.1-20.9h5.677l7.406,20.9h-4.752l-1.718-4.828Zm.949-3.7h5.714c-1.485-4.411-2.43-7.23-2.936-9.108h-.03c-.515,2.061-1.559,5.339-2.748,9.108Zm25.212,8.531v-7.385a1.182,1.182,0,0,0-.174-.672l-7.2-12.844h5.112c1.616,3.154,3.712,7.347,4.756,9.618.909-2.19,3.2-6.589,4.777-9.618h4.728l-7.3,12.777a.993.993,0,0,0-.171.669v7.455Z" transform="translate(21.926 113.567)"/><path class="d" d="M68.088,225.7c0,5.817-3.493,10.825-10.281,10.825-6.559,0-9.993-4.765-9.993-10.753,0-6.084,3.794-10.754,10.285-10.754C64.215,215.016,68.088,219.3,68.088,225.7Zm-15.605-.019c0,4.08,1.79,7.167,5.495,7.167,4.021,0,5.444-3.366,5.444-7.091,0-3.955-1.619-7.061-5.516-7.061C54.131,218.694,52.483,221.609,52.483,225.68Zm28.369-10.361v12.453c0,4.012,2.063,5.2,4.317,5.2,2.587,0,4.21-1.405,4.21-5.2V215.319H93.9v12.23c0,7.146-4.184,8.968-8.794,8.968-4.716,0-8.783-1.9-8.783-8.883V215.319Zm26.932,3.7h-6.351v-3.7h17.2v3.7h-6.328v17.2h-4.523Zm22.607,8.832v8.364h-4.417v-20.9h9.184c4.557,0,7.01,2.51,7.01,5.739A5.006,5.006,0,0,1,139.132,226c1.034.381,2.6,1.458,2.6,5.2v1.032a16.628,16.628,0,0,0,.3,3.983h-4.282a14.664,14.664,0,0,1-.438-4.692v-.307c0-2.284-.576-3.366-3.945-3.366Zm0-3.6h3.788c2.476,0,3.428-.941,3.428-2.69,0-1.7-1.11-2.652-3.32-2.652h-3.9Zm34.724,2.949H155.12v5.311h11.025l-.536,3.7H150.733v-20.9h14.821v3.7H155.12V223.5h9.995Zm13.476,4.186-1.631,4.828h-4.443l7.1-20.9h5.677l7.4,20.9h-4.75l-1.718-4.828Zm.951-3.7h5.712c-1.483-4.411-2.43-7.23-2.934-9.108h-.03c-.515,2.061-1.559,5.339-2.748,9.108Zm37.815,2.089c-.839,3.9-3.781,6.739-9.014,6.739-6.627,0-9.762-4.692-9.762-10.637,0-5.73,3.233-10.864,9.98-10.864,5.565,0,8.264,3.267,8.773,6.76h-4.519a4.1,4.1,0,0,0-4.4-3.216c-3.726,0-5.165,3.353-5.165,7.156,0,3.534,1.248,7.256,5.286,7.256a4.158,4.158,0,0,0,4.275-3.193Zm8.018-14.459h4.519v8.152h8.41v-8.152h4.519v20.9H238.3v-9.044h-8.41v9.044h-4.519Z" transform="translate(8.22 130.59)"/><g transform="translate(38.619 68.951)"><g class="e"><path class="b" d="M157.851,98.044a70.7,70.7,0,0,0-9-.345h-7.686c-3.61,0-13.736.6-17.454,1.805A40.951,40.951,0,0,0,113.3,104.59a38.2,38.2,0,0,0-8.451,7.794c-2.407,3.01-4.127,5.114-5.218,8.612-1.313,4.159-1.343,2.684-2.013,10.737l.013,15.628H77.274v34.466H97.628v72.313h39.387V181.828h20.837V147.362H137.014l.061-9.453a35.713,35.713,0,0,1,.513-7.341c.381-2.241.616-3.771,1.9-4.94a8.88,8.88,0,0,1,3.758-2.013,15.852,15.852,0,0,1,3.758-.6,40.719,40.719,0,0,1,5.347.172" transform="translate(-4.06 -43.252)"/></g></g><line class="f" x2="80.577" transform="translate(111.835 191.56)"/><g transform="translate(38.619 68.951)"><g class="e"><path class="b" d="M157.851,98.044a70.7,70.7,0,0,0-9-.345h-7.686c-3.61,0-13.736.6-17.454,1.805A40.951,40.951,0,0,0,113.3,104.59a38.2,38.2,0,0,0-8.451,7.794c-2.407,3.01-4.127,5.114-5.218,8.612-1.313,4.159-1.343,2.684-2.013,10.737l.013,15.628H77.274v34.466H97.628v72.313h39.387V181.828h20.837V147.362H137.014l.061-9.453a35.713,35.713,0,0,1,.513-7.341c.381-2.241.616-3.771,1.9-4.94a8.88,8.88,0,0,1,3.758-2.013,15.852,15.852,0,0,1,3.758-.6,40.719,40.719,0,0,1,5.347.172" transform="translate(-4.06 -43.252)"/></g></g><g transform="translate(38.619 68.951)"><g class="e"><path class="b" d="M157.851,98.044a70.7,70.7,0,0,0-9-.345h-7.686c-3.61,0-13.736.6-17.454,1.805A40.951,40.951,0,0,0,113.3,104.59a38.2,38.2,0,0,0-8.451,7.794c-2.407,3.01-4.127,5.114-5.218,8.612-1.313,4.159-1.343,2.684-2.013,10.737l.013,15.628H77.274v34.466H97.628v72.313h39.387V181.828h20.837V147.362H137.014l.061-9.453a35.713,35.713,0,0,1,.513-7.341c.381-2.241.616-3.771,1.9-4.94a8.88,8.88,0,0,1,3.758-2.013,15.852,15.852,0,0,1,3.758-.6,40.719,40.719,0,0,1,5.347.172" transform="translate(-4.06 -43.252)"/></g></g><g transform="translate(38.619 68.951)"><g class="e"><path class="b" d="M157.851,98.044a70.7,70.7,0,0,0-9-.345h-7.686c-3.61,0-13.736.6-17.454,1.805A40.951,40.951,0,0,0,113.3,104.59a38.2,38.2,0,0,0-8.451,7.794c-2.407,3.01-4.127,5.114-5.218,8.612-1.313,4.159-1.343,2.684-2.013,10.737l.013,15.628H77.274v34.466H97.628v72.313h39.387V181.828h20.837V147.362H137.014l.061-9.453a35.713,35.713,0,0,1,.513-7.341c.381-2.241.616-3.771,1.9-4.94a8.88,8.88,0,0,1,3.758-2.013,15.852,15.852,0,0,1,3.758-.6,40.719,40.719,0,0,1,5.347.172" transform="translate(-4.06 -43.252)"/></g></g><path class="d" d="M12.556-20.872a28.907,28.907,0,0,0-1.228-8.587A36.364,36.364,0,0,0,7.6-37.543a10.9,10.9,0,0,0-2.226-2.9,3.748,3.748,0,0,0-2.226-.588q-1.05,0-1.05.567a13.337,13.337,0,0,0,.882,2.026q.882,1.837,1.837,4.378a39.805,39.805,0,0,1,1.659,5.973,35.864,35.864,0,0,1,.7,7.212,35.616,35.616,0,0,1-.714,7.244A40.622,40.622,0,0,1,4.808-7.666q-.945,2.52-1.827,4.378A14.863,14.863,0,0,0,2.1-1.262q0,.567,1.05.567a3.933,3.933,0,0,0,2.268-.556A10.328,10.328,0,0,0,7.6-4.138,42.512,42.512,0,0,0,9.763-8.19a32.248,32.248,0,0,0,1.543-3.989,27.228,27.228,0,0,0,.934-4.157A31.462,31.462,0,0,0,12.556-20.872Z" transform="translate(203.026 151.681)"/><path class="d" d="M12.556-20.872a28.907,28.907,0,0,0-1.228-8.587A36.364,36.364,0,0,0,7.6-37.543a10.9,10.9,0,0,0-2.226-2.9,3.748,3.748,0,0,0-2.226-.588q-1.05,0-1.05.567a13.337,13.337,0,0,0,.882,2.026q.882,1.837,1.837,4.378a39.805,39.805,0,0,1,1.659,5.973,35.864,35.864,0,0,1,.7,7.212,35.616,35.616,0,0,1-.714,7.244A40.622,40.622,0,0,1,4.808-7.666q-.945,2.52-1.827,4.378A14.863,14.863,0,0,0,2.1-1.262q0,.567,1.05.567a3.933,3.933,0,0,0,2.268-.556A10.328,10.328,0,0,0,7.6-4.138,42.512,42.512,0,0,0,9.763-8.19a32.248,32.248,0,0,0,1.543-3.989,27.228,27.228,0,0,0,.934-4.157A31.462,31.462,0,0,0,12.556-20.872Z" transform="translate(220.365 150.804)"/><g transform="translate(38.619 68.951)"><g class="e"><path class="b" d="M157.851,98.044a70.7,70.7,0,0,0-9-.345h-7.686c-3.61,0-13.736.6-17.454,1.805A40.951,40.951,0,0,0,113.3,104.59a38.2,38.2,0,0,0-8.451,7.794c-2.407,3.01-4.127,5.114-5.218,8.612-1.313,4.159-1.343,2.684-2.013,10.737l.013,15.628H77.274v34.466H97.628v72.313h39.387V181.828h20.837V147.362H137.014l.061-9.453a35.713,35.713,0,0,1,.513-7.341c.381-2.241.616-3.771,1.9-4.94a8.88,8.88,0,0,1,3.758-2.013,15.852,15.852,0,0,1,3.758-.6,40.719,40.719,0,0,1,5.347.172" transform="translate(-4.06 -43.252)"/></g></g><line class="f" x2="80.992" transform="translate(111.504 191.56)"/><g transform="translate(38.619 68.951)"><g class="e"><path class="d" d="M95.045,253.568H108.3v-155s-8.394,1.879-13.258,6.981Z" transform="translate(11.828 -42.474)"/></g></g></g></svg>